PathFileType	4	(X/Y/Z)	C:/Users/beibeiliu/ov580/test_trc/User2\sequence.9_training_dense_right.trc
DataRate	CameraRate	NumFrames	NumMarkers	Units	OrigDataRate	OrigDataStartFrame	OrigNumFrames
120	120	18	19	mm	120	133	353
Frame#	Time	ThumbCMC			ThumbMCP			ThumbIP			ThumbTip			IndexMCP			IndexPIP			IndexTip			MiddleMCP			MiddlePIP			MiddleTip			RingMCP			RingPIP			RingTip			PinkyMCP			PinkyPIP			PinkyTip			BackHand1			BackHand2			BackHand3	
		X0	Y0	Z0	X1	Y1	Z1	X2	Y2	Z2	X3	Y3	Z3	X4	Y4	Z4	X5	Y5	Z5	X6	Y6	Z6	X7	Y7	Z7	X8	Y8	Z8	X9	Y9	Z9	X10	Y10	Z10	X11	Y11	Z11	X12	Y12	Z12	X13	Y13	Z13	X14	Y14	Z14	X15	Y15	Z15	X16	Y16	Z16	X17	Y17	Z17	X18	Y18	Z18	
132	1.1	136.822	33.3598	40.2944	131.54	37.3493	8.69243	114.343	33.5083	-25.7293	102.183	36.2022	-42.6188	83.06	-5.78128	-17.2079	63.7689	-9.3453	-37.0567	42.5313	-13.454	-61.5187	70.8671	-19.9046	-14.4067	45.1635	-24.1957	-36.6531	25.3823	-29.7345	-54.8695	55.6139	-27.8368	2.69075	39.9662	-29.1813	-14.8888	20.7126	-30.3334	-39.9687	52.3662	-28.5578	29.4765	33.7948	-29.1974	4.86406	21.9198	-30.4875	-12.6839	96.8797	-27.5991	49.3185	115.628	-23.9752	76.2084	129.154	-5.59261	40.8637	
133	1.10833	148.234	34.7932	38.6931	139.998	34.8267	6.37505	127.445	33.9229	-22.8119	116.972	35.6275	-45.992	101.726	-5.9982	-26.6126	82.8142	-10.0932	-45.8697	60.5037	-19.4666	-64.2434	84.6245	-24.7983	-18.3651	69.2823	-25.5449	-41.3802	47.1749	-35.6759	-63.2848	73.2092	-31.6981	-1.43726	56.2115	-35.2429	-20.5628	39.2314	-38.0572	-43.5668	65.4187	-33.449	21.0056	49.29	-35.3764	-1.69519	42.3383	-34.783	-19.8163	109.257	-25.9536	44.7593	129.811	-21.9553	67.7863	141.18	-2.82139	37.2139	
134	1.11667	156.694	34.497	39.2604	153.767	38.8667	7.75848	144.809	36.1859	-30.2057	135.289	35.7587	-51.9502	120.258	-8.77479	-27.4085	106.511	-11.1278	-50.5433	85.0597	-20.4941	-72.4662	108.635	-25.2297	-25.4712	90.1375	-31.479	-48.7426	70.1487	-42.2289	-74.7566	95.7286	-33.7066	-9.55706	80.4862	-38.0395	-28.2668	64.9901	-41.3911	-58.0492	87.3352	-34.6824	16.7566	72.6825	-36.9648	-10.2952	65.1066	-41.3431	-29.2476	129.202	-26.0795	42.4424	144.183	-19.2454	70.9974	155.336	-3.85124	39.1453	
135	1.125	169.291	38.253	34.6702	169.11	44.3261	3.15693	160.205	39.426	-32.617	150.068	36.7585	-52.7568	142.242	-5.03015	-32.2382	125.372	-14.8499	-52.898	108.868	-24.3232	-74.371	127.631	-27.9981	-30.1413	113.952	-34.5736	-53.8651	101.064	-44.3135	-77.5524	116.028	-36.8918	-17.2217	103.14	-42.7861	-38.2803	91.3456	-47.911	-59.9726	107.032	-37.6188	9.52284	94.4551	-44.7438	-16.572	88.5413	-49.8154	-36.8385	142.873	-26.3933	36.5002	160.911	-18.5196	67.4808	168.503	0.52374	32.9291	
136	1.13333	177.174	45.8305	35.6481	175.345	47.3814	3.63956	168.622	43.5988	-29.9397	161.635	40.4489	-54.2676	158.869	-5.13154	-32.1125	148.893	-9.86482	-58.2887	131.89	-24.6504	-81.1434	150.608	-26.1567	-32.8042	140.951	-31.9073	-57.4206	128.412	-45.8826	-82.8818	140.562	-39.2469	-16.9913	130.085	-45.9596	-39.9061	121.046	-53.7586	-68.1563	131.536	-41.1432	4.28293	120.264	-48.7062	-21.5028	117.389	-52.1185	-44.5801	163.302	-25.2499	33.4001	173.872	-15.5616	66.8444	184.518	5.39239	32.0796	
137	1.14167	180.191	52.6544	34.3109	179.647	54.9709	1.40429	175.904	50.4509	-34.3675	166.234	46.8639	-53.7395	174.339	0.0682061	-38.6744	165.454	-6.50595	-61.6162	156.483	-19.1992	-84.8484	171.114	-21.0779	-35.6992	163.296	-30.0237	-66.1746	155.063	-42.0168	-90.0013	164.361	-37.8678	-23.475	157.563	-44.8361	-48.4937	150.463	-52.0019	-75.4085	154.938	-41.519	-2.2695	148.933	-49.8926	-24.9433	143.508	-59.1147	-49.1829	180.744	-22.3804	34.2397	192.237	-6.95374	60.5907	195.489	17.0047	29.45	
138	1.15	179.278	58.533	33.7415	178.361	64.4615	2.62633	175.214	59.9566	-33.6502	168.941	57.5331	-57.7518	185.576	8.07888	-39.635	179.746	0.376308	-65.7849	174.114	-13.8725	-86.4694	187.747	-12.4278	-39.3464	180.474	-22.5754	-68.5313	177.058	-37.2066	-89.6609	183.66	-28.8017	-22.7185	180.074	-41.1738	-49.4671	176.103	-45.2507	-77.6386	176.432	-37.5763	-3.61582	173.352	-45.4795	-27.9244	172.727	-54.1982	-52.3667	196.624	-11.3216	28.9009	202.445	-1.25656	60.1662	200.738	26.8306	32.8012	
139	1.15833	175.211	59.7307	37.543	173.848	65.605	5.34124	170.783	66.4325	-30.7136	165.284	61.7171	-51.8151	193.101	23.1072	-40.7769	188.817	12.2357	-66.7564	187.076	0.337634	-87.2923	200.112	0.515094	-39.1064	195.662	-11.4458	-68.8825	195.355	-25.1819	-92.7143	199.256	-16.0338	-24.5111	198.869	-27.9947	-48.5004	196.868	-36.2409	-80.2709	194.458	-32.347	-4.5435	193.618	-36.5426	-27.2061	195.403	-43.528	-54.0414	206.5	-0.441544	28.8586	211.51	9.99593	61.1863	204.789	35.7412	33.8044	
140	1.16667	170.581	63.7065	38.5348	163.664	76.5156	8.98901	159.755	73.967	-23.6682	157.08	69.9704	-48.8044	193.54	36.7407	-36.6074	193.351	23.6638	-65.3146	193.846	17.1393	-90.4994	205.205	16.9034	-36.6878	203.55	7.53867	-69.2872	207.601	-5.96621	-94.9278	211.524	-5.00575	-26.8598	210.468	-9.07772	-52.4278	211.256	-18.8795	-82.6568	205.668	-18.3655	-3.3379	206.547	-21.8793	-29.0261	209.752	-24.9874	-59.2858	212.225	7.98894	32.8445	213.557	20.0145	59.7619	201.845	49.6305	34.328	
141	1.175	156.678	70.0623	45.7847	150.055	77.1562	13.3661	145.016	80.9684	-21.2994	139.989	75.4336	-42.538	185.155	52.3882	-38.7346	187.359	41.817	-61.7241	189.419	34.0232	-87.9503	201.991	32.4682	-36.8419	199.147	29.6503	-68.6702	204.583	21.1313	-96.1544	208.49	18.5779	-31.2446	211.497	11.0569	-56.6859	210.667	10.343	-82.1216	211.565	-3.42176	-7.52332	210.832	-3.83416	-37.2878	213.56	-5.64005	-59.6672	211.327	27.127	27.7066	214.212	31.6438	62.3639	195.799	56.5986	37.3368	
142	1.18333	143.912	71.2794	48.0126	129.926	82.1217	23.0701	124.412	84.0576	-12.5745	117.771	80.2331	-32.6979	171.052	64.7849	-32.58	169.401	60.9134	-58.2576	172.91	57.1164	-84.7614	188.748	51.8754	-37.9761	188.18	47.1681	-65.1385	191.255	45.4654	-99.6137	200.937	36.8271	-32.917	199.752	36.1759	-53.5736	201.073	35.3282	-87.2496	206.342	16.993	-12.3723	203.69	18.7215	-36.7462	209.28	19.7397	-62.7628	202.993	40.3624	31.673	209.103	43.1015	58.7624	181.61	70.3404	40.3621	
143	1.19167	131.097	68.9084	55.6025	111.942	79.1494	34.523	101.212	85.2758	-1.74107	95.0831	85.2202	-25.1685	148.954	77.6437	-23.6589	147.505	76.1362	-54.9397	152.761	73.2132	-80.0031	169.791	68.0509	-31.6586	168.058	66.3719	-61.6208	167.993	69.5158	-94.3823	184.459	54.5002	-25.7906	185.095	54.7834	-57.5196	181.694	59.4269	-81.9407	195.708	34.0831	-10.8093	192.44	36.5545	-37.1884	189.25	46.7998	-61.444	191.669	56.3895	28.3322	194.426	54.3401	65.6127	164.988	74.3738	45.7797	
144	1.2	115.655	65.9928	67.8626	93.3671	76.8004	42.9371	82.3736	82.5442	10.7146	70.7081	84.4526	-10.8884	126.935	86.3975	-19.745	127.123	85.5921	-47.5632	123.916	88.9393	-70.9809	145.275	80.4119	-24.9252	143.039	80.8086	-57.9424	142.365	86.1477	-85.6731	164.52	68.9125	-26.3535	163.334	69.5796	-48.9507	159.89	78.0581	-79.3076	181.245	49.8835	-12.5175	173.557	56.4921	-39.4475	170.247	63.1975	-56.6411	175.456	64.3655	30.1749	181.431	63.8534	68.0136	149.056	82.2091	50.8834	
145	1.20833	103.078	64.2592	70.784	81.4946	74.3297	46.7685	64.1515	80.7187	18.0146	53.4267	83.2433	-3.4398	110.42	87.5602	-14.7392	105.976	89.9317	-38.8887	102.872	93.417	-66.486	128.926	86.1587	-21.1054	123.204	88.3914	-51.335	122.369	93.671	-80.8405	146.36	76.3357	-22.4696	142.779	79.903	-48.1661	139.378	86.1519	-75.155	163.839	58.3052	-9.72414	157.587	63.7261	-34.376	157.035	72.551	-57.2371	165.031	68.6055	35.0743	169.297	67.9386	67.3194	136.283	82.4949	55.6932	
146	1.21667	91.6665	64.1332	69.8048	70.82	70.0178	51.8056	53.5876	77.7606	19.3172	41.0316	76.8746	0.897842	92.9291	87.5082	-13.6884	88.5784	87.2675	-35.388	89.9998	88.6005	-67.4105	114.194	83.8066	-20.6786	108.618	86.2909	-51.8523	105.642	92.1599	-83.6969	133.921	73.4207	-20.6532	128.17	77.5654	-48.1478	122.928	84.5054	-72.8971	151.426	59.757	-13.043	143.396	64.6973	-36.7591	136.489	73.0526	-58.4401	148.741	72.773	33.393	158.005	67.4496	65.2953	122.464	79.9615	58.5462	
147	1.225	80.5815	62.5833	70.7175	59.6109	66.5809	51.1626	43.3921	70.4101	20.3054	31.7304	69.4473	-1.0518	85.8914	77.8893	-12.7092	80.5527	78.1751	-39.8855	77.1139	76.7678	-69.5962	105.253	75.4824	-25.9546	95.2964	76.9311	-56.1614	89.0373	79.3749	-85.7166	121.06	65.7476	-22.6638	117.234	67.2191	-48.0729	110.104	72.3432	-75.3909	138.32	50.469	-9.23712	132.969	52.8565	-36.1495	128.083	60.2354	-58.5887	139.423	66.6637	33.8544	146.105	66.2146	62.4214	113.9	76.7473	56.3843	
148	1.23333	72.8797	57.781	69.7414	47.7963	61.0203	48.153	30.5327	60.6851	16.522	18.0317	55.4812	-1.44279	72.628	63.0101	-17.587	68.5181	56.8864	-45.2054	62.6746	53.7528	-71.7535	91.1768	57.4215	-27.8029	85.7019	53.0261	-54.3319	79.1812	49.8932	-87.529	108.341	48.5238	-25.7727	105.996	45.7448	-49.4795	94.8677	45.9664	-76.373	127.331	34.9015	-13.3635	121.388	31.9351	-39.2897	111.067	34.3386	-62.2302	129.907	54.405	28.9126	137.61	60.9131	61.4542	105.35	71.9823	51.7731	
149	1.24167	60.3009	49.6001	72.9609	38.9753	46.6999	54.2829	16.9162	40.4755	21.4029	8.21457	29.4546	2.52375	61.9479	36.0663	-13.7074	55.5507	25.7906	-36.4901	52.2956	18.0633	-61.7913	77.6007	30.6533	-22.579	68.8415	19.4526	-49.3735	64.4778	12.2496	-80.3728	94.9355	22.4115	-20.8798	90.2198	14.4243	-43.128	81.2104	9.93566	-74.1296	114.042	11.5405	-8.43991	106.922	5.12312	-31.8982	97.4765	2.31783	-54.9697	117.893	41.8078	30.9547	129.159	51.9349	59.2657	89.2592	60.4596	49.0656	
